# xmcd CD database file
#
# Track frame offsets:
#	150
#	21830
#	40117
#	64530
#	86037
#	101754
#	119047
#	138857
#	176195
#	201402
#	227240
#	245355
#	266957
#	288672
#
# Disc length: 4070 seconds
#
# Revision: 0
# Processed by: cddbd v1.5PL3 Copyright (c) Steve Scherf et al.
# Submitted via: CDex 1.51
#
DISCID=d70fe40e
DTITLE=The Stable Roof Jazz Band - New Orleans
DYEAR=1999
DGENRE=Jazz
TTITLE0=Lonesome Road
TTITLE1=You Rascal You
TTITLE2=Wabash Blues
TTITLE3=His Eye Is On The Sparrow
TTITLE4=Lost In Meditation
TTITLE5=I'm Walking Through The Streets Of The City
TTITLE6=Harlem Rag
TTITLE7=Creole Love Call
TTITLE8=1919 Rag
TTITLE9=Yellow Dog Blues
TTITLE10=At A Georgia Camp Meeting
TTITLE11=You Are My Sunshine
TTITLE12=Storyville Blues
TTITLE13=Roll Jordan Roll
EXTD=YEAR: 1999
EXTT0=
EXTT1=
EXTT2=
EXTT3=
EXTT4=
EXTT5=
EXTT6=
EXTT7=
EXTT8=
EXTT9=
EXTT10=
EXTT11=
EXTT12=
EXTT13=
PLAYORDER=
